<?xml version="1.0" encoding="UTF-8" standalone="no"?><svg xmlns="http://www.w3.org/2000/svg" xmlns:xlink="http://www.w3.org/1999/xlink" width="48px" height="48px" viewBox="0 0 48 48" version="1.1"><title>Fancy-black</title><g id="Icons" stroke="none" stroke-width="1" fill="none" fill-rule="evenodd"><g id="Black" transform="translate(-200.000000, -1043.000000)" fill="#000"><path d="M205.365 1043h37.27a5.368 5.368 0 0 1 5.365 5.371v37.258a5.368 5.368 0 0 1-5.365 5.371h-37.27a5.368 5.368 0 0 1-5.365-5.371v-37.258a5.368 5.368 0 0 1 5.365-5.371zm26.406 30.957h-5.323v6.28a2.448 2.448 0 0 1-4.897 0v-6.28h-5.322c-.94 0-1.704-.762-1.704-1.703v-11.07c0-.037.004-.072.006-.107.114-5.134 4.308-9.261 9.469-9.261s9.355 4.127 9.47 9.26c.001.036.005.071.005.107v11.071c0 .94-.763 1.703-1.704 1.703z" id="Fancy"/></g></g><metadata><rdf:RDF xmlns:rdf="http://www.w3.org/1999/02/22-rdf-syntax-ns#" xmlns:rdfs="http://www.w3.org/2000/01/rdf-schema#" xmlns:dc="http://purl.org/dc/elements/1.1/"><rdf:Description about="https://iconscout.com/legal#licenses" dc:title="fancy,black" dc:description="fancy,black" dc:publisher="Iconscout" dc:date="2017-09-14" dc:format="image/svg+xml" dc:language="en"><dc:creator><rdf:Bag><rdf:li>Alexis Doreau</rdf:li></rdf:Bag></dc:creator></rdf:Description></rdf:RDF></metadata></svg>